# xmcd CD database file
#
# Track frame offsets:
#	225
#	26073
#	48409
#	69342
#	101291
#	126124
#	156291
#	184720
#	209243
#	241425
#	264168
#	299370
#
# Disc length: 4216 seconds
#
# Revision: 0
# Processed by: cddbd v1.4PL0 Copyright (c) Steve Scherf et al.
# Submitted via: CDex 1.50
#
DISCID=ae10750c
DTITLE=Thilo Kreitmeier - Mo' Better Blues
DYEAR=1998
DGENRE=Jazz
TTITLE0=Little Sheri
TTITLE1=Shadow Of Your Smile
TTITLE2=Mo' Better Blues
TTITLE3=Since I Fell For You
TTITLE4=There Was A Time
TTITLE5=Light Blue
TTITLE6=Strings
TTITLE7=Roots
TTITLE8=Willow Weep For Me
TTITLE9=Spicy Fried Chicken
TTITLE10=Blues In Maude's Flat
TTITLE11=Monty's Mood
EXTD=YEAR: 1998
EXTT0=
EXTT1=
EXTT2=
EXTT3=
EXTT4=
EXTT5=
EXTT6=
EXTT7=
EXTT8=
EXTT9=
EXTT10=
EXTT11=
PLAYORDER=
